<svg display="none" 
  xmlns="http://www.w3.org/2000/svg">
  <symbol id="printer" viewBox="0 0 32 32">
    <g>
      <path d="M26,25 L28.0057181,25 C29.6594143,25 31,23.6556493 31,22.0005775 L31,12.9994225 C31,11.3428872 29.6594313,10 28.0057181,10 L26,10 L26,2.99961498 C26,1.89525812 25.1090746,1 24.0025781,1 L8.99742191,1 C7.89427625,1 7,1.88743329 7,2.99961498 L7,10 L7,10 L4.99428189,10 C3.34058566,10 2,11.3443507 2,12.9994225 L2,22.0005775 C2,23.6571128 3.3405687,25 4.99428189,25 L7,25 L7,29.000385 C7,30.1047419 7.89092539,31 8.99742191,31 L24.0025781,31 C25.1057238,31 26,30.1125667 26,29.000385 L26,25 L26,25 L26,25 Z M7,24 L5.00732994,24 C3.89833832,24 3,23.1033337 3,21.9972399 L3,13.0027601 C3,11.8935426 3.89871223,11 5.00732994,11 L27.9926701,11 C29.1016617,11 30,11.8966663 30,13.0027601 L30,21.9972399 C30,23.1064574 29.1012878,24 27.9926701,24 L26,24 L26,21 L7,21 L7,24 L7,24 L7,24 Z M8.9999602,2 C8.44769743,2 8,2.45303631 8,2.99703014 L8,10 L25,10 L25,2.99703014 C25,2.4463856 24.5452911,2 24.0000398,2 L8.9999602,2 L8.9999602,2 Z M8,22 L8,29.0029699 C8,29.5536144 8.45470893,30 8.9999602,30 L24.0000398,30 C24.5523026,30 25,29.5469637 25,29.0029699 L25,22 L8,22 L8,22 Z M25,16 C25.5522848,16 26,15.5522848 26,15 C26,14.4477152 25.5522848,14 25,14 C24.4477152,14 24,14.4477152 24,15 C24,15.5522848 24.4477152,16 25,16 L25,16 Z"/>
    </g>
  </symbol>
  <symbol id="desktop" viewBox="0 0 576 512">
    <g>
      <path  d="M528 0H48C21.5 0 0 21.5 0 48v320c0 26.5 21.5 48 48 48h192l-16 48h-72c-13.3 0-24 10.7-24 24s10.7 24 24 24h272c13.3 0 24-10.7 24-24s-10.7-24-24-24h-72l-16-48h192c26.5 0 48-21.5 48-48V48c0-26.5-21.5-48-48-48zm-16 352H64V64h448v288z"/>
    </g>
  </symbol>
  <symbol id="mobile" viewBox="0 0 320 512">
    <g>
      <path  d="M272 0H48C21.5 0 0 21.5 0 48v416c0 26.5 21.5 48 48 48h224c26.5 0 48-21.5 48-48V48c0-26.5-21.5-48-48-48zM160 480c-17.7 0-32-14.3-32-32s14.3-32 32-32 32 14.3 32 32-14.3 32-32 32zm112-108c0 6.6-5.4 12-12 12H60c-6.6 0-12-5.4-12-12V60c0-6.6 5.4-12 12-12h200c6.6 0 12 5.4 12 12v312z"/>
    </g>
  </symbol>
  <symbol id="pencil" viewBox="0 0 512 512">
    <g>
      <path  d="M109.46 244.04l134.58-134.56-44.12-44.12-61.68 61.68a7.919 7.919 0 01-11.21 0l-11.21-11.21c-3.1-3.1-3.1-8.12 0-11.21l61.68-61.68-33.64-33.65C131.47-3.1 111.39-3.1 99 9.29L9.29 99c-12.38 12.39-12.39 32.47 0 44.86l100.17 100.18zm388.47-116.8c18.76-18.76 18.75-49.17 0-67.93l-45.25-45.25c-18.76-18.76-49.18-18.76-67.95 0l-46.02 46.01 113.2 113.2 46.02-46.03zM316.08 82.71l-297 296.96L.32 487.11c-2.53 14.49 10.09 27.11 24.59 24.56l107.45-18.84L429.28 195.9 316.08 82.71zm186.63 285.43l-33.64-33.64-61.68 61.68c-3.1 3.1-8.12 3.1-11.21 0l-11.21-11.21c-3.09-3.1-3.09-8.12 0-11.21l61.68-61.68-44.14-44.14L267.93 402.5l100.21 100.2c12.39 12.39 32.47 12.39 44.86 0l89.71-89.7c12.39-12.39 12.39-32.47 0-44.86z"/>
    </g>
  </symbol>
</svg>
