<?xml version="1.0"?>
<!--Icons from directory ""-->
<svg xmlns="http://www.w3.org/2000/svg" width="32" height="128" viewBox="0 0 32 128"><svg aria-hidden="true" data-prefix="fas" data-icon="desktop" class="svg-inline--fa fa-desktop fa-w-18" viewBox="0 0 576 512" width="32" height="32" id="desktop-solid" y="0"><path fill="currentColor" d="M528 0H48C21.5 0 0 21.5 0 48v320c0 26.5 21.5 48 48 48h192l-16 48h-72c-13.3 0-24 10.7-24 24s10.7 24 24 24h272c13.3 0 24-10.7 24-24s-10.7-24-24-24h-72l-16-48h192c26.5 0 48-21.5 48-48V48c0-26.5-21.5-48-48-48zm-16 352H64V64h448v288z"/></svg><svg aria-hidden="true" data-prefix="fas" data-icon="mobile-alt" class="svg-inline--fa fa-mobile-alt fa-w-10" viewBox="0 0 320 512" width="32" height="32" id="mobile-alt-solid" y="32"><path fill="currentColor" d="M272 0H48C21.5 0 0 21.5 0 48v416c0 26.5 21.5 48 48 48h224c26.5 0 48-21.5 48-48V48c0-26.5-21.5-48-48-48zM160 480c-17.7 0-32-14.3-32-32s14.3-32 32-32 32 14.3 32 32-14.3 32-32 32zm112-108c0 6.6-5.4 12-12 12H60c-6.6 0-12-5.4-12-12V60c0-6.6 5.4-12 12-12h200c6.6 0 12 5.4 12 12v312z"/></svg><svg aria-hidden="true" data-prefix="fas" data-icon="pencil-ruler" class="svg-inline--fa fa-pencil-ruler fa-w-16" viewBox="0 0 512 512" width="32" height="32" id="pencil-ruler-solid" y="64"><path fill="currentColor" d="M109.46 244.04l134.58-134.56-44.12-44.12-61.68 61.68a7.919 7.919 0 01-11.21 0l-11.21-11.21c-3.1-3.1-3.1-8.12 0-11.21l61.68-61.68-33.64-33.65C131.47-3.1 111.39-3.1 99 9.29L9.29 99c-12.38 12.39-12.39 32.47 0 44.86l100.17 100.18zm388.47-116.8c18.76-18.76 18.75-49.17 0-67.93l-45.25-45.25c-18.76-18.76-49.18-18.76-67.95 0l-46.02 46.01 113.2 113.2 46.02-46.03zM316.08 82.71l-297 296.96L.32 487.11c-2.53 14.49 10.09 27.11 24.59 24.56l107.45-18.84L429.28 195.9 316.08 82.71zm186.63 285.43l-33.64-33.64-61.68 61.68c-3.1 3.1-8.12 3.1-11.21 0l-11.21-11.21c-3.09-3.1-3.09-8.12 0-11.21l61.68-61.68-44.14-44.14L267.93 402.5l100.21 100.2c12.39 12.39 32.47 12.39 44.86 0l89.71-89.7c12.39-12.39 12.39-32.47 0-44.86z"/></svg><svg height="32" width="32" id="printer" y="96"><path d="M26 25h2.006A2.998 2.998 0 0031 22v-9c0-1.657-1.34-3-2.994-3H26V3c0-1.105-.89-2-1.997-2H8.997A1.994 1.994 0 007 3v7H4.994A2.998 2.998 0 002 13v9c0 1.657 1.34 3 2.994 3H7v4c0 1.105.89 2 1.997 2h15.006A1.994 1.994 0 0026 29v-4zM7 24H5.007A2.005 2.005 0 013 21.997v-8.994C3 11.893 3.899 11 5.007 11h22.986c1.109 0 2.007.897 2.007 2.003v8.994c0 1.11-.899 2.003-2.007 2.003H26v-3H7v3zM9 2c-.552 0-1 .453-1 .997V10h17V2.997c0-.55-.455-.997-1-.997H9zM8 22v7.003c0 .55.455.997 1 .997h15c.552 0 1-.453 1-.997V22H8zm17-6a1 1 0 100-2 1 1 0 000 2z" fill="#929292" fill-rule="evenodd"/></svg></svg>
